HIERARCHY
ROOT root
{
  OFFSET 0 95.9893 0
  CHANNELS 6 Xposition Yposition Zposition Zrotation Xrotation Yrotation
  JOINT torso_1
  {
    OFFSET 0 5.22546 -1.18466
    CHANNELS 6 Xposition Yposition Zposition Zrotation Xrotation Yrotation
    JOINT torso_2
    {
      OFFSET 0 5.77894 1.10239
      CHANNELS 6 Xposition Yposition Zposition Zrotation Xrotation Yrotation
      JOINT torso_3
      {
        OFFSET -1.0557e-17 6.16289 0.118334
        CHANNELS 6 Xposition Yposition Zposition Zrotation Xrotation Yrotation
        JOINT torso_4
        {
          OFFSET -1.13649e-17 6.69386 -0.456341
          CHANNELS 6 Xposition Yposition Zposition Zrotation Xrotation Yrotation
          JOINT torso_5
          {
            OFFSET -2.02997e-17 7.82529 -1.54945
            CHANNELS 6 Xposition Yposition Zposition Zrotation Xrotation Yrotation
            JOINT torso_6
            {
              OFFSET -2.60628e-17 9.77186 -0.940923
              CHANNELS 6 Xposition Yposition Zposition Zrotation Xrotation Yrotation
              JOINT torso_7
              {
                OFFSET -2.98794e-17 10.8563 1.62248
                CHANNELS 6 Xposition Yposition Zposition Zrotation Xrotation Yrotation
                JOINT neck_1
                {
                  OFFSET -1.32927e-17 4.92478 0.736013
                  CHANNELS 6 Xposition Yposition Zposition Zrotation Xrotation Yrotation
                  JOINT neck_2
                  {
                    OFFSET -1.86396e-17 4.96043 0.433981
                    CHANNELS 6 Xposition Yposition Zposition Zrotation Xrotation Yrotation
                    JOINT head
                    {
                      OFFSET -2.06766e-17 4.97002 0.787173
                      CHANNELS 6 Xposition Yposition Zposition Zrotation Xrotation Yrotation
                      End Site
                      {
                        OFFSET 0 0.1 0
                      }
                    }
                  }
                }
                JOINT l_shoulder
                {
                  OFFSET 1.26863 -7.82717 7.75148
                  CHANNELS 6 Xposition Yposition Zposition Zrotation Xrotation Yrotation
                  JOINT l_up_arm
                  {
                    OFFSET 13.3291 3.34342 -3.36319
                    CHANNELS 6 Xposition Yposition Zposition Zrotation Xrotation Yrotation
                    JOINT l_low_arm
                    {
                      OFFSET 30.0522 0.0615366 0.141
                      CHANNELS 6 Xposition Yposition Zposition Zrotation Xrotation Yrotation
                      JOINT l_hand
                      {
                        OFFSET 24.9344 0.0510561 0.116988
                        CHANNELS 6 Xposition Yposition Zposition Zrotation Xrotation Yrotation
                        End Site
                        {
                          OFFSET 0.1 0 0
                        }
                      }
                    }
                  }
                }
                JOINT r_shoulder
                {
                  OFFSET -1.26863 -7.82715 7.75138
                  CHANNELS 6 Xposition Yposition Zposition Zrotation Xrotation Yrotation
                  JOINT r_up_arm
                  {
                    OFFSET -13.3291 3.34342 -3.36319
                    CHANNELS 6 Xposition Yposition Zposition Zrotation Xrotation Yrotation
                    JOINT r_low_arm
                    {
                      OFFSET -30.0522 0.0615366 0.141
                      CHANNELS 6 Xposition Yposition Zposition Zrotation Xrotation Yrotation
                      JOINT r_hand
                      {
                        OFFSET -24.9344 0.0510559 0.116988
                        CHANNELS 6 Xposition Yposition Zposition Zrotation Xrotation Yrotation
                        End Site
                        {
                          OFFSET -0.1 0 0
                        }
                      }
                    }
                  }
                }
              }
            }
          }
        }
      }
    }
  }
  JOINT l_up_leg
  {
    OFFSET 9.50369 -4.32711 2.09145
    CHANNELS 6 Xposition Yposition Zposition Zrotation Xrotation Yrotation
    JOINT l_low_leg
    {
      OFFSET -0.876987 -39.8926 -0.674123
      CHANNELS 6 Xposition Yposition Zposition Zrotation Xrotation Yrotation
      JOINT l_foot
      {
        OFFSET -2.39345 -41.5694 -6.22357
        CHANNELS 6 Xposition Yposition Zposition Zrotation Xrotation Yrotation
        JOINT l_toes
        {
          OFFSET 0.801613 -10.1701 12.8571
          CHANNELS 6 Xposition Yposition Zposition Zrotation Xrotation Yrotation
          End Site
          {
            OFFSET 0 0 0.1
          }
        }
      }
    }
  }
  JOINT r_up_leg
  {
    OFFSET -9.50369 -4.32711 2.09145
    CHANNELS 6 Xposition Yposition Zposition Zrotation Xrotation Yrotation
    JOINT r_low_leg
    {
      OFFSET 0.876987 -39.8926 -0.674123
      CHANNELS 6 Xposition Yposition Zposition Zrotation Xrotation Yrotation
      JOINT r_foot
      {
        OFFSET 2.39345 -41.5694 -6.22357
        CHANNELS 6 Xposition Yposition Zposition Zrotation Xrotation Yrotation
        JOINT r_toes
        {
          OFFSET -0.801613 -10.1701 12.8571
          CHANNELS 6 Xposition Yposition Zposition Zrotation Xrotation Yrotation
          End Site
          {
            OFFSET 0 0 0.1
          }
        }
      }
    }
  }
}
MOTION
Frames: 8
Frame Time: 0.016667
382.277 82.8661 948.258 -0.0836612 1.52464 86.7142 0 5.22546 -1.18466 -3.87694 4.853 2.10165 0 5.77894 1.10239 -3.36687 3.58333 1.39199 -1.0557e-17 6.16289 0.118334 -2.68303 2.43166 1.35454 -1.13649e-17 6.69386 -0.456341 -1.91896 -0.197306 1.25114 -2.02997e-17 7.82529 -1.54945 -0.822485 -1.09114 1.44852 -2.60628e-17 9.77186 -0.940923 0.472847 -2.10822 1.13964 -2.98794e-17 10.8563 1.62248 0.0589714 1.45489 -0.210426 -1.32927e-17 4.92478 0.736013 -0.297942 1.30146 -4.31755 -1.86396e-17 4.96043 0.433981 2.49696 -7.34034 -2.11874 -2.06766e-17 4.97002 0.787173 5.35374 -7.58803 -2.72694 1.26863 -7.82717 7.75148 5.86452 4.43165 -1.15162 13.3291 3.34342 -3.36319 -72.5836 13.699 7.96931 30.0522 0.0615366 0.141 8.6685 -3.67444 -46.471 24.9344 0.0510561 0.116988 -4.92884 -40.3321 -6.63587 -1.26863 -7.82715 7.75138 -10.7008 2.5253 -1.26051 -13.3291 3.34342 -3.36319 85.3008 30.8098 2.79556 -30.0522 0.0615366 0.141 -11.1134 -7.4022 67.8328 -24.9344 0.0510559 0.116988 6.53838 -25.1639 5.96273 9.50369 -4.32711 2.09145 -8.17964 -38.7424 -19.9078 -0.876987 -39.8926 -0.674123 -9.02497 30.8315 1.93932 -2.39345 -41.5694 -6.22357 5.96863 -4.27068 15.6168 0.801613 -10.1701 12.8571 5.11456e-16 -6.50787e-16 -2.10503e-16 -9.50369 -4.32711 2.09145 8.22379 1.67974 8.07478 0.876987 -39.8926 -0.674123 34.7192 65.8565 -21.5282 2.39345 -41.5694 -6.22357 15.5627 17.4879 -16.5139 -0.801613 -10.1701 12.8571 -1.79083e-15 -3.3444e-16 -1.25298e-14 
386.77 80.6359 947.798 -1.17581 3.35654 89.0891 0 5.22546 -1.18466 -4.80439 6.25699 1.5742 0 5.77894 1.10239 -4.07973 4.48041 0.711653 -1.0557e-17 6.16289 0.118334 -3.17194 2.86112 0.672609 -1.13649e-17 6.69386 -0.456341 -2.20023 -0.570103 0.580459 -2.02997e-17 7.82529 -1.54945 -0.970581 -1.8773 0.810536 -2.60628e-17 9.77186 -0.940923 0.361991 -3.20965 0.528306 -2.98794e-17 10.8563 1.62248 0.0330236 1.57651 -0.156662 -1.32927e-17 4.92478 0.736013 -0.196002 -0.677669 -3.96987 -1.86396e-17 4.96043 0.433981 2.97086 -9.16745 -1.93367 -2.06766e-17 4.97002 0.787173 5.76127 -8.59818 -3.32699 1.26863 -7.82717 7.75148 4.96363 4.99429 -2.04208 13.3291 3.34342 -3.36319 -69.4486 14.6418 4.00753 30.0522 0.0615366 0.141 9.22224 -4.29122 -50.4249 24.9344 0.0510561 0.116988 -4.35694 -41.4556 -6.60432 -1.26863 -7.82715 7.75138 -10.2647 3.5346 -0.202369 -13.3291 3.34342 -3.36319 87.2175 31.5341 1.00896 -30.0522 0.0615366 0.141 -10.5388 -6.2121 61.535 -24.9344 0.0510559 0.116988 7.01925 -26.8026 6.83091 9.50369 -4.32711 2.09145 -14.0692 -40.6705 -24.4648 -0.876987 -39.8926 -0.674123 -10.4537 34.6911 2.64473 -2.39345 -41.5694 -6.22357 6.74972 -4.16721 15.5531 0.801613 -10.1701 12.8571 2.4913e-15 -5.65248e-16 -2.97096e-16 -9.50369 -4.32711 2.09145 6.02365 -7.52291 5.85855 0.876987 -39.8926 -0.674123 65.326 74.5063 -50.2549 2.39345 -41.5694 -6.22357 14.9248 15.8181 -16.2933 -0.801613 -10.1701 12.8571 1.85015e-16 -4.19805e-16 -1.26163e-14 
391.354 78.9521 947.642 1.89759 5.33668 89.6168 0 5.22546 -1.18466 -5.74372 8.47783 1.27596 0 5.77894 1.10239 -4.78713 5.95923 0.269272 -1.0557e-17 6.16289 0.118334 -3.67462 3.89036 0.229779 -1.13649e-17 6.69386 -0.456341 -2.52415 -0.409175 0.153863 -2.02997e-17 7.82529 -1.54945 -1.13999 -2.30654 0.426582 -2.60628e-17 9.77186 -0.940923 0.296157 -3.86382 0.160277 -2.98794e-17 10.8563 1.62248 -0.0496265 1.66706 -0.0476982 -1.32927e-17 4.92478 0.736013 -0.262557 -2.60794 -3.80613 -1.86396e-17 4.96043 0.433981 3.14223 -10.5224 -1.87855 -2.06766e-17 4.97002 0.787173 6.37346 -9.74141 -3.36174 1.26863 -7.82717 7.75148 3.66406 5.39734 -3.18788 13.3291 3.34342 -3.36319 -64.5787 15.4023 -1.39051 30.0522 0.0615366 0.141 9.38038 -4.48403 -51.6135 24.9344 0.0510561 0.116988 -4.66536 -43.7222 -7.66232 -1.26863 -7.82715 7.75138 -8.58784 4.58467 1.32734 -13.3291 3.34342 -3.36319 88.0166 33.0315 0.879558 -30.0522 0.0615366 0.141 -9.46848 -4.59495 52.2883 -24.9344 0.0510559 0.116988 6.94013 -28.7621 7.44154 9.50369 -4.32711 2.09145 -21.7821 -38.4845 -31.3107 -0.876987 -39.8926 -0.674123 -13.0976 40.9716 4.15727 -2.39345 -41.5694 -6.22357 12.5343 -4.98447 15.037 0.801613 -10.1701 12.8571 -6.63252e-16 -7.0154e-16 -1.61557e-16 -9.50369 -4.32711 2.09145 3.83161 -13.2055 5.04936 0.876987 -39.8926 -0.674123 107.954 75.3579 -91.3598 2.39345 -41.5694 -6.22357 14.5178 11.6047 -16.1999 -0.801613 -10.1701 12.8571 -9.91693e-16 -3.68966e-16 -1.25673e-14 
396.414 77.6216 947.506 3.79321 5.96669 89.0438 0 5.22546 -1.18466 -5.58837 10.0851 0.851301 0 5.77894 1.10239 -4.53605 7.06916 -0.153506 -1.0557e-17 6.16289 0.118334 -3.44251 4.65069 -0.175478 -1.13649e-17 6.69386 -0.456341 -2.34375 -0.20066 -0.230155 -2.02997e-17 7.82529 -1.54945 -1.07503 -2.61281 0.0161328 -2.60628e-17 9.77186 -0.940923 0.187615 -4.32153 -0.199926 -2.98794e-17 10.8563 1.62248 -0.144167 1.72707 0.073257 -1.32927e-17 4.92478 0.736013 -0.0732283 -3.40719 -2.3019 -1.86396e-17 4.96043 0.433981 3.34068 -10.3209 -1.13134 -2.06766e-17 4.97002 0.787173 6.05002 -10.1178 -2.2333 1.26863 -7.82717 7.75148 3.55525 5.50485 -4.43738 13.3291 3.34342 -3.36319 -61.247 14.9869 -7.29597 30.0522 0.0615366 0.141 9.55688 -4.7092 -52.9769 24.9344 0.0510561 0.116988 -4.73715 -47.9194 -8.13375 -1.26863 -7.82715 7.75138 -6.97739 5.75094 2.80054 -13.3291 3.34342 -3.36319 88.4732 34.0484 0.363731 -30.0522 0.0615366 0.141 -8.09347 -3.11497 42.6397 -24.9344 0.0510559 0.116988 6.70576 -28.89 7.37522 9.50369 -4.32711 2.09145 -22.9353 -36.1124 -29.5976 -0.876987 -39.8926 -0.674123 -15.3855 45.5746 5.64441 -2.39345 -41.5694 -6.22357 11.9791 -9.89709 15.0072 0.801613 -10.1701 12.8571 5.07456e-16 -6.5096e-16 -2.10315e-16 -9.50369 -4.32711 2.09145 3.87177 -20.6471 5.64751 0.876987 -39.8926 -0.674123 133.37 71.338 -115.618 2.39345 -41.5694 -6.22357 12.5801 9.47201 -16.2101 -0.801613 -10.1701 12.8571 -6.02124e-16 -3.85797e-16 -1.25794e-14 
401.824 77.3958 946.415 5.95752 5.81156 88.8424 0 5.22546 -1.18466 -5.418 10.6544 0.549838 0 5.77894 1.10239 -4.29744 7.58943 -0.373225 -1.0557e-17 6.16289 0.118334 -3.22199 5.23498 -0.363524 -1.13649e-17 6.69386 -0.456341 -2.14917 0.588011 -0.387491 -2.02997e-17 7.82529 -1.54945 -0.951982 -2.04002 -0.192832 -2.60628e-17 9.77186 -0.940923 0.234218 -3.67945 -0.407227 -2.98794e-17 10.8563 1.62248 -0.209112 1.64147 0.201467 -1.32927e-17 4.92478 0.736013 0.0784703 -4.81676 -1.46907 -1.86396e-17 4.96043 0.433981 3.46829 -11.6629 -0.721067 -2.06766e-17 4.97002 0.787173 5.35112 -11.6321 -3.09625 1.26863 -7.82717 7.75148 3.45633 4.84313 -5.48371 13.3291 3.34342 -3.36319 -59.026 15.18 -13.2444 30.0522 0.0615366 0.141 9.80222 -5.04156 -54.9451 24.9344 0.0510561 0.116988 -2.60084 -50.6443 -7.97477 -1.26863 -7.82715 7.75138 -5.67307 6.371 3.9415 -13.3291 3.34342 -3.36319 89.1814 35.215 -0.46146 -30.0522 0.0615366 0.141 -6.39861 -1.82744 32.4433 -24.9344 0.0510559 0.116988 5.78219 -32.189 7.59493 9.50369 -4.32711 2.09145 -25.0502 -34.4298 -27.6842 -0.876987 -39.8926 -0.674123 -21.5933 54.962 10.2643 -2.39345 -41.5694 -6.22357 20.4016 -19.7726 17.3863 0.801613 -10.1701 12.8571 4.07358e-15 -4.96887e-16 -3.58904e-16 -9.50369 -4.32711 2.09145 4.06592 -26.2487 6.96776 0.876987 -39.8926 -0.674123 142.497 68.1884 -124.112 2.39345 -41.5694 -6.22357 12.0302 5.81683 -16.1716 -0.801613 -10.1701 12.8571 -9.95693e-16 -3.68793e-16 -1.25671e-14 
408.044 77.9108 945.315 6.07425 5.77421 88.7556 0 5.22546 -1.18466 -5.01302 10.4463 0.202534 0 5.77894 1.10239 -3.95589 7.50595 -0.580509 -1.0557e-17 6.16289 0.118334 -2.967 5.28393 -0.530115 -1.13649e-17 6.69386 -0.456341 -1.97767 0.925551 -0.521191 -2.02997e-17 7.82529 -1.54945 -0.904935 -1.68567 -0.362659 -2.60628e-17 9.77186 -0.940923 0.16529 -3.20949 -0.5463 -2.98794e-17 10.8563 1.62248 -0.263538 1.57317 0.316644 -1.32927e-17 4.92478 0.736013 0.0600888 -5.08947 -1.14378 -1.86396e-17 4.96043 0.433981 3.1725 -11.4686 -0.563225 -2.06766e-17 4.97002 0.787173 4.79761 -12.641 -2.65002 1.26863 -7.82717 7.75148 3.87471 4.30556 -6.52385 13.3291 3.34342 -3.36319 -57.6024 14.247 -17.5815 30.0522 0.0615366 0.141 10.1961 -5.63034 -58.3193 24.9344 0.0510561 0.116988 -2.76027 -52.2237 -9.52747 -1.26863 -7.82715 7.75138 -4.73371 7.08447 4.86048 -13.3291 3.34342 -3.36319 90.908 35.0535 -3.66924 -30.0522 0.0615366 0.141 -5.05117 -1.09699 25.0853 -24.9344 0.0510559 0.116988 5.27749 -36.3176 7.53663 9.50369 -4.32711 2.09145 -25.1594 -29.2199 -25.4065 -0.876987 -39.8926 -0.674123 -20.79 53.9582 9.62927 -2.39345 -41.5694 -6.22357 20.8093 -20.8685 17.4531 0.801613 -10.1701 12.8571 4.88272e-15 -4.61928e-16 -3.96738e-16 -9.50369 -4.32711 2.09145 2.72172 -32.684 7.92846 0.876987 -39.8926 -0.674123 144.748 67.1639 -126.172 2.39345 -41.5694 -6.22357 12.5468 5.05205 -16.0355 -0.801613 -10.1701 12.8571 -6.02124e-16 -3.85797e-16 -1.25794e-14 
414.575 79.01 943.835 6.05254 4.90466 89.4141 0 5.22546 -1.18466 -4.3467 9.83074 -0.238226 0 5.77894 1.10239 -3.37299 7.16775 -0.863569 -1.0557e-17 6.16289 0.118334 -2.52201 5.14338 -0.778755 -1.13649e-17 6.69386 -0.456341 -1.66553 1.16209 -0.745606 -2.02997e-17 7.82529 -1.54945 -0.794076 -1.28204 -0.633894 -2.60628e-17 9.77186 -0.940923 0.0663569 -2.66768 -0.771615 -2.98794e-17 10.8563 1.62248 -0.311886 1.49922 0.406555 -1.32927e-17 4.92478 0.736013 0.22766 -4.52453 -0.3398 -1.86396e-17 4.96043 0.433981 2.78979 -10.7481 -0.18973 -2.06766e-17 4.97002 0.787173 4.01727 -12.775 -2.41356 1.26863 -7.82717 7.75148 4.5429 3.54488 -6.90812 13.3291 3.34342 -3.36319 -57.8766 13.9925 -20.4853 30.0522 0.0615366 0.141 10.752 -6.61602 -63.71 24.9344 0.0510561 0.116988 -1.14877 -51.7522 -9.05023 -1.26863 -7.82715 7.75138 -5.12395 7.43944 5.22366 -13.3291 3.34342 -3.36319 93.4246 34.0088 -8.38229 -30.0522 0.0615366 0.141 -4.28826 -0.776315 21.1078 -24.9344 0.0510559 0.116988 5.38138 -37.8119 7.25769 9.50369 -4.32711 2.09145 -24.9831 -22.6365 -24.9737 -0.876987 -39.8926 -0.674123 -18.8875 51.3534 8.16439 -2.39345 -41.5694 -6.22357 21.6406 -23.1124 18.0137 0.801613 -10.1701 12.8571 -3.81581e-15 -8.37744e-16 -2.60797e-17 -9.50369 -4.32711 2.09145 2.0778 -37.531 8.54269 0.876987 -39.8926 -0.674123 141.387 68.6514 -123.091 2.39345 -41.5694 -6.22357 11.5464 4.76217 -15.8776 -0.801613 -10.1701 12.8571 -6.00124e-16 -3.85884e-16 -1.25795e-14 
421.541 80.5366 941.962 5.869 3.41579 90.3315 0 5.22546 -1.18466 -3.52608 8.62543 -0.786477 0 5.77894 1.10239 -2.62278 6.45067 -1.25728 -1.0557e-17 6.16289 0.118334 -1.92978 4.75029 -1.15547 -1.13649e-17 6.69386 -0.456341 -1.2285 1.33656 -1.10577 -2.02997e-17 7.82529 -1.54945 -0.613814 -0.774457 -1.04392 -2.60628e-17 9.77186 -0.940923 -0.0540532 -1.96656 -1.12692 -2.98794e-17 10.8563 1.62248 -0.355362 1.41895 0.459403 -1.32927e-17 4.92478 0.736013 0.438619 -3.42157 0.00271078 -1.86396e-17 4.96043 0.433981 2.3724 -9.76676 -0.0186843 -2.06766e-17 4.97002 0.787173 3.57018 -12.3749 -0.955906 1.26863 -7.82717 7.75148 5.10595 2.63999 -6.47522 13.3291 3.34342 -3.36319 -59.1889 14.1653 -22.3713 30.0522 0.0615366 0.141 11.2012 -7.61876 -68.9465 24.9344 0.0510561 0.116988 0.154699 -50.038 -8.61416 -1.26863 -7.82715 7.75138 -6.25285 7.3371 4.81897 -13.3291 3.34342 -3.36319 95.9086 31.4387 -13.305 -30.0522 0.0615366 0.141 -3.97288 -0.661502 19.4939 -24.9344 0.0510559 0.116988 4.07904 -33.7269 5.38931 9.50369 -4.32711 2.09145 -23.5148 -14.7555 -24.6992 -0.876987 -39.8926 -0.674123 -15.6605 46.0806 5.83253 -2.39345 -41.5694 -6.22357 20.686 -24.976 18.3154 0.801613 -10.1701 12.8571 4.84272e-15 -4.63657e-16 -3.95051e-16 -9.50369 -4.32711 2.09145 1.97882 -40.7052 8.7849 0.876987 -39.8926 -0.674123 130.48 72.0794 -112.894 2.39345 -41.5694 -6.22357 7.87224 3.94842 -15.6633 -0.801613 -10.1701 12.8571 -9.95693e-16 -3.68793e-16 -1.25671e-14 
